<svg width="31" height="31" viewBox="0 0 31 31" fill="none" xmlns="http://www.w3.org/2000/svg">
<path d="M17.1626 30.7836C17.0063 30.9748 16.7455 31.0064 16.5132 30.999C15.7741 30.9916 15.034 31.0043 14.2949 30.9938C13.9897 30.9969 13.6983 30.7562 13.6793 30.4457C13.6899 26.9623 13.6667 23.4715 13.6772 19.9881C13.4713 20.0525 13.3436 20.2331 13.1947 20.3767C10.9257 22.6501 8.65033 24.9181 6.38237 27.1936C6.16486 27.5008 5.67917 27.599 5.4036 27.314C4.83239 26.7586 4.27595 26.1884 3.71108 25.6266C3.4978 25.4313 3.43339 25.0913 3.59282 24.8432C3.72691 24.6563 3.9043 24.5063 4.06373 24.3427C6.39821 22.0049 8.73902 19.6724 11.0714 17.3315C7.60504 17.3114 4.13764 17.3294 0.671293 17.3231C0.338702 17.3526 0.00294112 17.077 0.00505279 16.736C-0.00339406 15.925 0.000830418 15.1141 0.00294204 14.3042C-0.010784 13.9906 0.25001 13.6749 0.575211 13.6844C4.06689 13.6707 7.55858 13.6887 11.0513 13.6749C10.9848 13.5894 10.9151 13.507 10.8412 13.4268C8.46766 11.051 6.09095 8.67842 3.71741 6.30159C3.45239 6.07352 3.43022 5.63532 3.68574 5.39246C4.25378 4.82228 4.82077 4.25104 5.39304 3.68613C5.63271 3.43061 6.06772 3.45278 6.29473 3.7157C8.14352 5.56246 9.99125 7.41134 11.839 9.26022C12.2223 9.63928 12.4503 10.1704 12.4503 10.71C12.4588 12.2452 12.4408 13.7805 12.4598 15.3158C12.5306 16.944 13.9391 18.3694 15.5651 18.4581C16.9736 18.4824 18.3831 18.4624 19.7916 18.4687C20.4389 18.4201 21.1325 18.5606 21.6056 19.0315C23.4934 20.9089 25.3707 22.7947 27.2543 24.6753C27.531 24.8991 27.5669 25.3648 27.2945 25.6055C26.7349 26.1694 26.171 26.7311 25.6083 27.2928C25.3686 27.5653 24.8977 27.5378 24.6728 27.259C22.2232 24.8115 19.7758 22.3607 17.3262 19.9121C17.3157 23.2836 17.322 26.6561 17.323 30.0276C17.3157 30.2842 17.3642 30.5841 17.1626 30.7836Z" fill="#DB1F26"/>
<path d="M13.7371 0.702846C13.7107 0.343841 14.0085 -0.026778 14.3833 0.00278706C19.1008 -0.000381462 23.8184 -0.00143818 28.5359 0.00278458C29.8515 0.00278435 31.0097 1.18222 30.996 2.49681C30.9981 7.21245 30.9971 11.9281 30.9971 16.6437C31.0351 17.0122 30.6993 17.3607 30.3276 17.3206C29.5548 17.3216 28.7808 17.3269 28.0069 17.3184C27.7018 17.3195 27.4272 17.045 27.4198 16.7419C27.3977 13.249 27.4378 9.75506 27.3987 6.26215C24.9323 8.71077 22.4848 11.1784 20.0215 13.6302C19.7819 13.8921 19.3437 13.8731 19.1124 13.6112C18.5497 13.0452 17.9785 12.4867 17.4231 11.9144C17.1887 11.6831 17.1982 11.2608 17.4453 11.0443C19.9012 8.5904 22.3497 6.1291 24.8119 3.68259C24.6461 3.6583 24.4804 3.64458 24.3135 3.64246C21.0035 3.64563 17.6934 3.64458 14.3844 3.64247C14.0412 3.67626 13.754 3.37216 13.7414 3.04166C13.7297 2.26241 13.7403 1.4821 13.7371 0.702846Z" fill="#DB1F26"/>
</svg>
